#!OML:ASF H:\Male1\Project 1\Capture day 1\Session 1\Male1.ASF
:FULLY-SPECIFIED
:DEGREES
391
root 45.9051 15.2532 1.24741 715.377 149.105 716.518
lowerback 5.51017 2.79608 -0.806784
upperback 5.42809 4.12055 -2.33194
thorax 2.6363 2.24315 -2.06814
lowerneck 4.903 16.2567 21.432
upperneck 3.27494 24.2303 -20.1158
head 5.30352 12.2884 -7.81329
rclavicle 2.6339e-015 -1.51076e-014
rhumerus -38.06 -0.957164 -88.0986
rradius 37.6473
rwrist -18.8467
rhand -18.8622 -0.10965
rfingers 7.12502
rthumb 7.43815 -29.9589
lclavicle 2.6339e-015 -1.51076e-014
lhumerus -34.5437 -12.9792 89.4379
lradius 38.7872
lwrist 3.83434
lhand -18.2408 12.8981
lfingers 7.12502
lthumb 8.03789 42.7252
rfemur -14.6217 -9.362 19.23
rtibia 50.8803
rfoot -29.3128 -29.4763
rtoes -11.6312
lfemur -5.91516 -10.7581 -27.8081
ltibia 27.061
lfoot -20.9986 19.4401
ltoes -9.33099
392
root 45.9099 15.2547 1.22237 714.844 150.96 715.779
lowerback 5.80182 2.71479 -1.78618
upperback 5.47681 4.01171 -2.57785
thorax 2.47717 2.17761 -1.78936
lowerneck 5.23383 16.2959 21.6898
upperneck 3.01576 24.3661 -20.3825
head 5.26863 12.3777 -7.93872
rclavicle -3.23025e-014 3.65764e-014
rhumerus -37.9272 -0.809265 -88.2556
rradius 37.6762
rwrist -19.012
rhand -19.2043 -0.0149823
rfingers 7.12502
rthumb 7.10792 -29.8756
lclavicle -3.23025e-014 3.65764e-014
lhumerus -33.3752 -12.5262 89.3208
lradius 37.4587
lwrist 3.77558
lhand -18.6688 13.268
lfingers 7.12502
lthumb 7.62481 43.1106
rfemur -15.9096 -9.11935 17.978
rtibia 53.971
rfoot -26.8628 -27.3037
rtoes -11.2833
lfemur -4.70721 -11.5959 -28.7488
ltibia 25.1509
lfoot -19.5853 19.1085
ltoes -12.0468
393
root 45.9533 15.2531 1.20227 713.494 153.508 711.927
lowerback 5.46768 2.83062 -5.90657
upperback 5.4482 4.17093 -3.53447
thorax 2.4607 2.18849 -0.483548
lowerneck 5.05628 16.1674 21.8069
upperneck 3.17168 24.1818 -20.2746
head 5.30459 12.278 -7.93366
rclavicle -4.42296e-014 -1.98785e-015
rhumerus -37.9199 -1.45641 -88.1544
rradius 37.807
rwrist -19.1775
rhand -19.5548 -0.0361002
rfingers 7.12502
rthumb 6.7696 -29.9079
lclavicle -4.42296e-014 -1.98785e-015
lhumerus -33.6172 -13.5945 89.582
lradius 37.2398
lwrist 5.1509
lhand -20.1314 12.4242
lfingers 7.12502
lthumb 6.21298 42.3131
rfemur -17.7778 -9.19948 13.6782
rtibia 56.8014
rfoot -25.3185 -24.6515
rtoes -13.2065
lfemur -4.27179 -12.3041 -32.4957
ltibia 23.6312
lfoot -18.4647 18.1573
ltoes -14.0093
394
root 45.9839 15.266 1.18079 713.505 155.772 711.33
lowerback 5.57137 2.88894 -6.79456
upperback 5.45141 4.2696 -3.81951
thorax 2.37773 2.23976 -0.299917
lowerneck 4.66883 16.0733 21.8038
upperneck 3.47352 23.9974 -19.9905
head 5.37959 12.1637 -7.83638
rclavicle 4.7112e-014 8.74653e-015
rhumerus -37.8573 -2.14787 -88.119
rradius 37.9286
rwrist -19.2717
rhand -19.8233 -0.176752
rfingers 7.12502
rthumb 6.51043 -30.0567
lclavicle 4.7112e-014 8.74653e-015
lhumerus -33.5709 -14.464 89.563
lradius 36.8507
lwrist 5.27273
lhand -20.3403 12.175
lfingers 7.12502
lthumb 6.01129 42.0697
rfemur -18.8386 -8.76556 12.727
rtibia 58.553
rfoot -24.2913 -22.6965
rtoes -15.5541
lfemur -3.90467 -12.913 -33.1643
ltibia 22.8106
lfoot -18.3806 16.5965
ltoes -12.538
395
root 45.9974 15.2814 1.15487 713.95 157.57 712.943
lowerback 6.2049 2.78938 -5.62967
upperback 5.50497 4.09796 -3.42495
thorax 2.12159 2.18028 -0.562063
lowerneck 4.63416 16.1241 21.0391
upperneck 3.38597 23.9593 -19.4595
head 5.18333 12.1375 -7.59015
rclavicle -7.65321e-015 5.60573e-014
rhumerus -37.7755 -1.8316 -88.1863
rradius 37.9948
rwrist -19.3622
rhand -20.0291 -0.277727
rfingers 7.12502
rthumb 6.31169 -30.1637
lclavicle -7.65321e-015 5.60573e-014
lhumerus -33.5227 -14.5557 89.5054
lradius 36.2452
lwrist 5.0116
lhand -20.6954 12.3321
lfingers 7.12502
lthumb 5.66848 42.2362
rfemur -19.1494 -7.69952 14.2075
rtibia 59.7503
rfoot -23.3437 -21.661
rtoes -18.5175
lfemur -2.83991 -13.5897 -31.7824
ltibia 21.6143
lfoot -18.0868 15.4976
ltoes -11.2628
396
root 45.9846 15.2943 1.10788 714.464 159.141 716.385
lowerback 7.16128 2.58267 -2.01345
upperback 5.73489 3.89754 -2.71991
thorax 1.99009 2.16667 -1.87471
lowerneck 4.56415 16.0421 20.587
upperneck 3.29123 23.7746 -19.1872
head 5.03694 12.0415 -7.48359
rclavicle 9.26337e-014 -5.08889e-014
rhumerus -37.6585 -1.43974 -88.3605
rradius 38.0362
rwrist -19.4394
rhand -20.2844 -0.268262
rfingers 7.12502
rthumb 6.06524 -30.1614
lclavicle 9.26337e-014 -5.08889e-014
lhumerus -33.0788 -13.6771 88.9277
lradius 35.3217
lwrist 3.02399
lhand -20.3675 13.0533
lfingers 7.12502
lthumb 5.98499 42.9487
rfemur -18.3948 -6.54884 17.509
rtibia 59.9016
rfoot -21.6883 -21.2057
rtoes -24.0166
lfemur -1.59729 -14.442 -28.8259
ltibia 21.3931
lfoot -17.9802 15.1484
ltoes -14.3355
397
root 46.0532 15.2882 1.07627 713.841 161.782 712.978
lowerback 6.70298 2.51712 -6.10536
upperback 5.69796 3.76554 -3.57899
thorax 2.04843 2.03565 -0.46321
lowerneck 4.47899 15.91 20.3604
upperneck 3.2346 23.5379 -18.97
head 4.93035 11.9205 -7.42628
rclavicle -5.93372e-014 5.00937e-014
rhumerus -37.6437 -1.20988 -88.607
rradius 38.1237
rwrist -19.5089
rhand -20.4852 -0.147393
rfingers 7.12502
rthumb 5.87138 -30.046
lclavicle -5.93372e-014 5.00937e-014
lhumerus -32.7826 -13.2727 88.423
lradius 34.4115
lwrist 3.19377
lhand -21.3861 12.8463
lfingers 7.12502
lthumb 5.00155 42.7673
rfemur -19.5819 -5.93113 13.8037
rtibia 60.4892
rfoot -21.6868 -19.58
rtoes -25.3901
lfemur -1.86416 -15.0886 -32.1925
ltibia 21.1677
lfoot -17.5227 14.0981
ltoes -18.325
398
root 46.0938 15.2951 1.03207 714.114 163.952 713.231
lowerback 6.70111 2.47137 -5.98647
upperback 5.72838 3.74516 -3.71764
thorax 2.09913 2.04327 -0.66895
lowerneck 4.28575 15.6775 20.3239
upperneck 3.2021 23.1403 -18.729
head 4.83796 11.7149 -7.39986
rclavicle -4.77083e-014 3.22031e-014
rhumerus -37.7047 -1.44281 -88.8383
rradius 38.3139
rwrist -19.4955
rhand -20.4459 -0.0803192
rfingers 7.12502
rthumb 5.90932 -29.9779
lclavicle -4.77083e-014 3.22031e-014
lhumerus -32.432 -12.974 87.8874
lradius 33.561
lwrist 2.10067
lhand -19.6769 14.6435
lfingers 7.12502
lthumb 6.65174 44.519
rfemur -19.8223 -4.75053 13.9594
rtibia 60.1533
rfoot -21.3259 -18.629
rtoes -27.4513
lfemur -1.57324 -15.9036 -32.0236
ltibia 20.8517
lfoot -17.4503 12.9763
ltoes -19.364
399
root 46.1326 15.2965 0.983898 714.254 166.034 713.634
lowerback 6.95584 2.42581 -5.73368
upperback 5.72797 3.69672 -3.76388
thorax 1.97556 2.04013 -0.867136
lowerneck 4.18129 15.4502 20.2077
upperneck 3.10872 22.7443 -18.416
head 4.69602 11.5147 -7.35033
rclavicle -2.36554e-014 2.38542e-015
rhumerus -37.9242 -1.45067 -89.046
rradius 38.6068
rwrist -19.5505
rhand -20.3406 -0.134472
rfingers 7.12502
rthumb 6.01095 -30.0292
lclavicle -2.36554e-014 2.38542e-015
lhumerus -32.4445 -13.1055 87.4819
lradius 32.9882
lwrist 1.914
lhand -20.1385 15.7659
lfingers 7.12502
lthumb 6.20609 45.655
rfemur -19.8407 -3.19682 14.2939
rtibia 59.5853
rfoot -21.2256 -17.6426
rtoes -29.2061
lfemur -0.856748 -16.6406 -31.7345
ltibia 20.0198
lfoot -17.0506 12.092
ltoes -21.782
400
root 46.1828 15.3015 0.932575 714.599 168.29 713.902
lowerback 6.9635 2.33567 -5.66878
upperback 5.67744 3.59536 -3.85799
thorax 1.93105 2.00223 -0.995891
lowerneck 3.95839 15.2753 20.125
upperneck 3.10394 22.4071 -18.0486
head 4.60995 11.336 -7.26392
rclavicle -5.62561e-014 -2.46493e-014
rhumerus -38.2232 -1.49691 -89.3413
rradius 38.9817
rwrist -19.5814
rhand -20.4349 -0.113188
rfingers 7.12502
rthumb 5.92 -30.0105
lclavicle -5.62561e-014 -2.46493e-014
lhumerus -32.4917 -13.1838 86.9866
lradius 32.3365
lwrist 2.38259
lhand -20.7328 14.733
lfingers 7.12502
lthumb 5.63237 44.6381
rfemur -19.8222 -1.42555 14.4953
rtibia 58.2617
rfoot -21.3467 -16.4558
rtoes -30.4079
lfemur -1.07465 -17.3506 -31.4338
ltibia 20.4395
lfoot -17.6343 10.7761
ltoes -23.4753
401
root 46.2308 15.3039 0.877366 714.906 170.387 714.326
lowerback 6.96221 2.26791 -5.4891
upperback 5.66999 3.52075 -3.81408
thorax 1.93104 1.97274 -1.04533
lowerneck 3.66606 15.1535 19.9652
upperneck 3.18597 22.1567 -17.7414
head 4.57821 11.1971 -7.16302
rclavicle 1.38155e-014 -3.65764e-014
rhumerus -38.4949 -1.33439 -89.5722
rradius 39.3545
rwrist -19.6462
rhand -20.483 -0.15715
rfingers 7.12502
rthumb 5.87347 -30.0557
lclavicle 1.38155e-014 -3.65764e-014
lhumerus -32.3935 -13.7304 86.5287
lradius 32.0645
lwrist 2.91772
lhand -20.004 16.1597
lfingers 7.12502
lthumb 6.33595 46.045
rfemur -19.6576 0.805191 14.8567
rtibia 56.6844
rfoot -21.7069 -15.0267
rtoes -30.6279
lfemur -1.1439 -18.0873 -30.9365
ltibia 20.7101
lfoot -18.4909 9.00779
ltoes -21.5944
402
root 46.2746 15.3153 0.815127 715.526 172.305 716.163
lowerback 6.61494 2.18126 -4.08467
upperback 5.71714 3.41906 -3.15139
thorax 2.19205 1.91755 -1.11394
lowerneck 3.49618 14.9694 19.5507
upperneck 3.10142 21.8607 -17.7389
head 4.47946 11.0446 -7.14491
rclavicle 3.47873e-015 2.38542e-014
rhumerus -38.6191 -0.495398 -89.5779
rradius 39.6561
rwrist -19.8431
rhand -20.8591 -0.240716
rfingers 7.12502
rthumb 5.51037 -30.1491
lclavicle 3.47873e-015 2.38542e-014
lhumerus -32.1859 -14.3603 86.4384
lradius 31.7606
lwrist 4.94639
lhand -19.8753 16.7381
lfingers 7.12502
lthumb 6.46022 46.6196
rfemur -19.4925 3.55892 16.7592
rtibia 54.7661
rfoot -21.9818 -13.5451
rtoes -30.8786
lfemur -1.38413 -18.7474 -28.8108
ltibia 20.9798
lfoot -19.0857 7.31523
ltoes -21.429
403
root 46.3423 15.3105 0.757031 716.145 174.944 715.413
lowerback 6.13635 2.03275 -5.13646
upperback 5.61631 3.23925 -3.41244
thorax 2.32555 1.80913 -0.770683
lowerneck 3.28705 14.9915 19.3774
upperneck 3.12288 21.2546 -17.5891
head 4.39038 10.6726 -7.13903
rclavicle 7.95139e-015 -1.59028e-015
rhumerus -38.8366 -0.0917214 -89.9294
rradius 39.8804
rwrist -19.7976
rhand -21.6987 -0.318207
rfingers 7.12502
rthumb 4.69968 -30.2461
lclavicle 7.95139e-015 -1.59028e-015
lhumerus -31.4994 -11.5715 85.0006
lradius 31.001
lwrist 2.8834
lhand -20.007 15.318
lfingers 7.12502
lthumb 6.33304 45.2033
rfemur -19.8958 5.78257 15.586
rtibia 53.0646
rfoot -22.4782 -11.2872
rtoes -30.8858
lfemur -2.11181 -19.3714 -29.2257
ltibia 21.1507
lfoot -19.1726 5.46027
ltoes -23.548
404
root 46.4079 15.2961 0.706738 716.489 177.769 715.037
lowerback 6.1974 1.80111 -5.80984
upperback 5.61467 2.9385 -3.49206
thorax 2.27852 1.65588 -0.469073
lowerneck 2.99936 14.7265 19.1966
upperneck 3.14237 20.8473 -17.6569
head 4.35751 10.4544 -7.17321
rclavicle 2.6339e-014 2.78299e-014
rhumerus -38.9781 0.178292 -90.1136
rradius 40.0391
rwrist -19.8843
rhand -21.984 -0.504594
rfingers 7.12502
rthumb 4.42423 -30.4384
lclavicle 2.6339e-014 2.78299e-014
lhumerus -31.1153 -9.91423 84.1139
lradius 30.5513
lwrist 1.673
lhand -21.1269 12.7992
lfingers 7.12502
lthumb 5.25183 42.7142
rfemur -19.7566 8.02783 14.7752
rtibia 51.24
rfoot -23.1761 -8.82209
rtoes -30.897
lfemur -2.4886 -19.9562 -29.345
ltibia 21.3116
lfoot -19.1655 3.4399
ltoes -24.7879
405
root 46.4652 15.2838 0.648007 716.458 180.18 714.928
lowerback 6.52318 2.82279 -5.69121
upperback 5.83409 2.82727 -3.48956
thorax 2.27449 0.979737 -0.56788
lowerneck 2.53051 14.3313 18.8937
upperneck 3.25163 20.2336 -17.6186
head 4.31885 10.1249 -7.17162
rclavicle -2.36554e-014 2.22639e-014
rhumerus -39.0385 -0.310914 -89.9851
rradius 40.1342
rwrist -20.1006
rhand -21.7493 -0.598217
rfingers 7.12502
rthumb 4.65089 -30.5272
lclavicle -2.36554e-014 2.22639e-014
lhumerus -30.5897 -9.46438 83.5421
lradius 30.1754
lwrist 1.27405
lhand -21.1351 12.542
lfingers 7.12502
lthumb 5.24389 42.4571
rfemur -19.1209 11.0336 14.3202
rtibia 49.3833
rfoot -23.5838 -6.33715
rtoes -32.962
lfemur -2.40146 -20.3597 -29.3304
ltibia 21.5827
lfoot -19.3166 1.67884
ltoes -25.408
